<svg width="808" height="269" viewBox="0 0 808 269" fill="currentcolor" xmlns="http://www.w3.org/2000/svg">
<path d="M-2.63 122V1.29999H52.79C58.6833 1.29999 64.1233 2.49 69.11 4.87C74.0967 7.24999 78.4033 10.48 82.03 14.56C85.6567 18.5267 88.4333 23.0033 90.36 27.99C92.4 32.9767 93.42 38.02 93.42 43.12C93.42 47.7667 92.74 52.2433 91.38 56.55C90.02 60.8567 88.0367 64.8233 85.43 68.45C82.8233 71.9633 79.7067 75.0233 76.08 77.63L101.58 122H65.2L43.95 84.94H30.52V122H-2.63ZM30.52 56.04H51.43C52.79 56.04 54.0933 55.53 55.34 54.51C56.5867 53.49 57.6067 52.0167 58.4 50.09C59.3067 48.1633 59.76 45.84 59.76 43.12C59.76 40.2867 59.25 37.9633 58.23 36.15C57.3233 34.2233 56.1333 32.75 54.66 31.73C53.3 30.71 51.94 30.2 50.58 30.2H30.52V56.04ZM198.107 93.1V122H112.087V1.29999H196.577V30.2H145.237V47.2H189.097V74.06H145.237V93.1H198.107ZM263.886 122.85C256.066 122.85 248.586 121.49 241.446 118.77C234.42 115.937 228.186 111.857 222.746 106.53C217.306 101.09 213 94.5733 209.826 86.98C206.766 79.2733 205.236 70.49 205.236 60.63C205.236 52.13 206.823 44.2533 209.996 37C213.17 29.7467 217.533 23.4 223.086 17.96C228.753 12.4067 235.326 8.1 242.806 5.04C250.286 1.97999 258.39 0.449994 267.116 0.449994C277.996 0.449994 287.856 2.82999 296.696 7.58999C305.536 12.2367 312.11 18.64 316.416 26.8L291.766 45.67C289.386 40.91 285.816 37.1133 281.056 34.28C276.296 31.3333 271.253 29.86 265.926 29.86C261.96 29.86 258.333 30.6533 255.046 32.24C251.76 33.8267 248.87 36.0367 246.376 38.87C243.996 41.7033 242.126 45.1033 240.766 49.07C239.52 52.9233 238.896 57.1733 238.896 61.82C238.896 66.58 239.576 70.8867 240.936 74.74C242.296 78.5933 244.166 81.9367 246.546 84.77C249.04 87.49 251.986 89.6433 255.386 91.23C258.786 92.7033 262.583 93.44 266.776 93.44C272.103 93.44 277.203 92.1367 282.076 89.53C286.95 86.81 291.37 83.0133 295.336 78.14V110.44C286.27 118.713 275.786 122.85 263.886 122.85ZM293.636 81.54H271.366V57.74H321.006V122H293.636V81.54ZM337.37 122V1.29999H370.52V122H337.37ZM464.425 40.74C464.425 40.74 463.462 40.1733 461.535 39.04C459.608 37.9067 457.058 36.66 453.885 35.3C450.712 33.8267 447.255 32.5233 443.515 31.39C439.775 30.2567 436.092 29.69 432.465 29.69C429.632 29.69 427.308 30.1433 425.495 31.05C423.682 31.9567 422.775 33.4867 422.775 35.64C422.775 37.68 423.682 39.3233 425.495 40.57C427.308 41.8167 429.858 42.95 433.145 43.97C436.545 44.99 440.568 46.2367 445.215 47.71C452.695 49.9767 459.155 52.5833 464.595 55.53C470.035 58.4767 474.228 62.2733 477.175 66.92C480.122 71.4533 481.595 77.5167 481.595 85.11C481.595 92.3633 480.292 98.4833 477.685 103.47C475.078 108.343 471.565 112.253 467.145 115.2C462.725 118.147 457.795 120.3 452.355 121.66C446.915 122.907 441.362 123.53 435.695 123.53C429.915 123.53 423.852 122.963 417.505 121.83C411.272 120.583 405.208 118.94 399.315 116.9C393.422 114.747 388.038 112.253 383.165 109.42L397.445 80.35C397.445 80.35 398.578 81.03 400.845 82.39C403.112 83.75 406.115 85.28 409.855 86.98C413.595 88.68 417.732 90.21 422.265 91.57C426.912 92.93 431.558 93.61 436.205 93.61C439.832 93.61 442.325 93.1567 443.685 92.25C445.158 91.23 445.895 89.9267 445.895 88.34C445.895 85.96 444.648 84.1467 442.155 82.9C439.662 81.54 436.375 80.2933 432.295 79.16C428.328 77.9133 423.908 76.4967 419.035 74.91C412.008 72.53 406.228 69.8667 401.695 66.92C397.162 63.86 393.818 60.29 391.665 56.21C389.512 52.0167 388.435 46.9733 388.435 41.08C388.435 32.1267 390.532 24.6467 394.725 18.64C398.918 12.6333 404.415 8.1 411.215 5.04C418.128 1.86666 425.552 0.279997 433.485 0.279997C439.378 0.279997 445.045 1.01666 450.485 2.49C456.038 3.84999 461.195 5.54999 465.955 7.58999C470.828 9.62999 475.078 11.5567 478.705 13.37L464.425 40.74ZM590.257 30.2H555.577V122H522.427V30.2H487.577V1.29999H590.257V30.2ZM688.351 93.1V122H602.331V1.29999H686.821V30.2H635.481V47.2H679.341V74.06H635.481V93.1H688.351ZM703.766 122V1.29999H759.186C765.08 1.29999 770.52 2.49 775.506 4.87C780.493 7.24999 784.8 10.48 788.426 14.56C792.053 18.5267 794.83 23.0033 796.756 27.99C798.796 32.9767 799.816 38.02 799.816 43.12C799.816 47.7667 799.136 52.2433 797.776 56.55C796.416 60.8567 794.433 64.8233 791.826 68.45C789.22 71.9633 786.103 75.0233 782.476 77.63L807.976 122H771.596L750.346 84.94H736.916V122H703.766ZM736.916 56.04H757.826C759.186 56.04 760.49 55.53 761.736 54.51C762.983 53.49 764.003 52.0167 764.796 50.09C765.703 48.1633 766.156 45.84 766.156 43.12C766.156 40.2867 765.646 37.9633 764.626 36.15C763.72 34.2233 762.53 32.75 761.056 31.73C759.696 30.71 758.336 30.2 756.976 30.2H736.916V56.04ZM30.52 207.67V267H-2.63V146.3H23.21L71.66 207.67V146.3H104.81V267H78.46L30.52 207.67ZM179.934 268.02C170.754 268.02 162.424 266.32 154.944 262.92C147.464 259.407 141.004 254.76 135.564 248.98C130.237 243.087 126.101 236.513 123.154 229.26C120.321 221.893 118.904 214.3 118.904 206.48C118.904 198.433 120.434 190.783 123.494 183.53C126.554 176.277 130.804 169.817 136.244 164.15C141.797 158.37 148.314 153.837 155.794 150.55C163.387 147.263 171.661 145.62 180.614 145.62C189.794 145.62 198.124 147.377 205.604 150.89C213.084 154.29 219.487 158.937 224.814 164.83C230.141 170.723 234.221 177.353 237.054 184.72C240.001 191.973 241.474 199.453 241.474 207.16C241.474 215.093 239.944 222.687 236.884 229.94C233.937 237.193 229.687 243.71 224.134 249.49C218.694 255.157 212.234 259.69 204.754 263.09C197.274 266.377 189.001 268.02 179.934 268.02ZM152.564 206.82C152.564 210.9 153.131 214.867 154.264 218.72C155.397 222.46 157.097 225.86 159.364 228.92C161.631 231.867 164.464 234.247 167.864 236.06C171.377 237.76 175.514 238.61 180.274 238.61C185.034 238.61 189.171 237.703 192.684 235.89C196.197 234.077 199.031 231.64 201.184 228.58C203.451 225.407 205.094 221.95 206.114 218.21C207.247 214.357 207.814 210.447 207.814 206.48C207.814 202.4 207.247 198.49 206.114 194.75C204.981 191.01 203.281 187.667 201.014 184.72C198.747 181.66 195.857 179.28 192.344 177.58C188.831 175.88 184.751 175.03 180.104 175.03C175.344 175.03 171.207 175.937 167.694 177.75C164.294 179.563 161.461 182 159.194 185.06C156.927 188.007 155.227 191.407 154.094 195.26C153.074 199 152.564 202.853 152.564 206.82ZM288.454 146.3H318.884L329.934 183.53L341.154 146.3H371.584L351.184 203.93L359.854 228.58L385.864 146.3H421.904L376.344 267H347.614L329.934 223.82L312.424 267H283.694L238.134 146.3H274.004L300.184 228.58L308.514 203.93L288.454 146.3Z" fill="currentcolor"/>
</svg>